<?xml version="1.0" encoding="UTF-8" standalone="no"?>


<svg width="210mm" height="297mm" viewBox="0 0 210 297" version="1.1" id="svg1" xmlns:inkscape="http://www.inkscape.org/namespaces/inkscape" inkscape:version="1.4.2 (f4327f4, 2025-05-13)" xmlns:sodipodi-0.dtd="http://sodipodi.sourceforge.net/DTD/sodipodi-0.dtd" sodipodi-0.dtd:docname="logo.svg" xmlns:inkscape="http://www.inkscape.org/namespaces/inkscape" xmlns:sodipodi="http://sodipodi.sourceforge.net/DTD/sodipodi-0.dtd" xmlns:xlink="http://www.w3.org/1999/xlink" xmlns="http://www.w3.org/2000/svg" xmlns:svg="http://www.w3.org/2000/svg">
  <namedview id="namedview1" pagecolor="#ffffff" bordercolor="#000000" borderopacity="0.25" inkscape:showpageshadow="2" inkscape:pageopacity="0.0" inkscape:pagecheckerboard="0" inkscape:deskcolor="#d1d1d1" inkscape:document-units="mm" inkscape:zoom="0.50835204" inkscape:cx="138.68342" inkscape:cy="622.60004" inkscape:window-width="1920" inkscape:window-height="1009" inkscape:window-x="-8" inkscape:window-y="-8" inkscape:window-maximized="1" inkscape:current-layer="layer1"></namedview>
  <defs id="defs1">
    <linearGradient inkscape:collect="always" xlink:href="#linearGradient87" id="linearGradient36" gradientUnits="userSpaceOnUse" gradientTransform="matrix(1.1243457,0,0,1.1243457,-892.04162,-295.40383)" x1="918.95813" y1="378.93011" x2="937.30188" y2="378.93011"></linearGradient>
    <linearGradient id="linearGradient87" inkscape:collect="always">
      <stop style="stop-color:#ffbf60;stop-opacity:1;" offset="0" id="stop87"></stop>
      <stop style="stop-color:#ffbf60;stop-opacity:0;" offset="1" id="stop88"></stop>
    </linearGradient>
  </defs>
  <g inkscape:label="Camada 1" inkscape:groupmode="layer" id="layer1">
    <rect style="fill:#ffffff;fill-opacity:1;stroke:none;stroke-width:0.0934504;stroke-opacity:1" id="rect3" width="83.636414" height="111.62788" x="26.042854" y="85.560219" inkscape:export-filename="rect19a-8.png" inkscape:export-xdpi="300" inkscape:export-ydpi="300"></rect>
    <text xml:space="preserve" style="font-weight:bold;font-size:6.80658px;font-family:&#39;TT Chocolates Trl&#39;;-inkscape-font-specification:&#39;TT Chocolates Trl Bold&#39;;text-align:center;writing-mode:lr-tb;direction:ltr;text-anchor:middle;fill:#1c2939;fill-opacity:1;stroke:none;stroke-width:0.267975;stroke-opacity:1" x="69.059395" y="153.46867" id="text7"><tspan sodipodi-0.dtd:role="line" id="tspan7" style="font-style:normal;font-variant:normal;font-weight:normal;font-stretch:normal;font-size:6.80658px;font-family:&#39;Felix Titling&#39;;-inkscape-font-specification:&#39;Felix Titling&#39;;fill:#1c2939;fill-opacity:1;stroke-width:0.267975" x="69.059395" y="153.46867">Rodrigues ALMEIDA</tspan></text>
    <text xml:space="preserve" style="font-weight:bold;font-size:3.9669px;font-family:&#39;TT Chocolates Trl&#39;;-inkscape-font-specification:&#39;TT Chocolates Trl Bold&#39;;text-align:center;letter-spacing:1.3177px;writing-mode:lr-tb;direction:ltr;text-anchor:middle;fill:#666666;fill-opacity:1;stroke:none;stroke-width:0.156177;stroke-opacity:1" x="69.175781" y="159.40251" id="text8"><tspan sodipodi-0.dtd:role="line" id="tspan8" style="font-style:normal;font-variant:normal;font-weight:normal;font-stretch:normal;font-size:3.9669px;font-family:&#39;TT Chocolates Trl&#39;;-inkscape-font-specification:&#39;TT Chocolates Trl&#39;;letter-spacing:1.3177px;fill:#666666;fill-opacity:1;stroke-width:0.156177" x="69.834633" y="159.40251">ADVOCACIA</tspan></text>
    <path style="fill:#000000;stroke-width:0.254303" d="m 76.894055,142.95877 c -0.82629,-0.1737 -2.00618,-0.5357 -2.71834,-0.8342 -1.19448,-0.5008 -2.51614,-1.388 -3.20088,-2.1488 -0.30043,-0.3339 -1.27861,-1.6258 -2.33469,-3.0838 -0.28785,-0.3975 -0.54982,-0.7389 -0.582,-0.7588 -0.1794,-0.1113 -2.20907,2.8798 -3.20682,4.7246 -0.37264,0.6892 -0.38308,0.9999 -0.0393,1.1716 0.11928,0.06 0.19757,0.1276 0.17381,0.1513 -0.0607,0.061 -2.37559,0.054 -2.37529,-0.011 1.3e-4,-0.028 0.13461,-0.1057 0.29886,-0.1732 0.40037,-0.1647 0.71901,-0.5273 1.31079,-1.492 1.25181,-2.0409 2.26261,-3.4904 3.10553,-4.4537 0.18202,-0.208 0.3309,-0.4058 0.3309,-0.4396 0,-0.034 -0.27266,-0.4192 -0.60579,-0.8563 -0.94714,-1.2428 -1.69069,-1.8824 -2.52204,-2.1699 l -0.33728,-0.1167 h 1.27839 c 1.38519,0 1.94825,-0.083 2.54562,-0.3585 0.82436,-0.3804 1.50761,-1.162 1.87542,-2.1454 0.18167,-0.4861 0.21284,-0.668 0.23948,-1.4023 0.0358,-0.991 -0.0495,-1.4197 -0.44919,-2.2589 -0.37147,-0.7793 -0.99045,-1.4212 -1.71452,-1.7782 -0.87528,-0.4312 -1.15977,-0.4658 -3.85929,-0.467 h -2.37185 v 7.5043 c 0,6.2252 0.0157,7.5423 0.0922,7.7264 0.11312,0.2708 0.4077,0.5138 0.62278,0.5138 0.0877,0 0.1591,0.031 0.1591,0.068 0,0.043 -0.47224,0.067 -1.28233,0.067 -0.83777,0 -1.26792,-0.023 -1.24085,-0.067 0.0227,-0.037 0.10121,-0.068 0.17316,-0.068 0.072,0 0.24477,-0.1034 0.38296,-0.2303 l 0.25131,-0.2303 0.0179,-7.3729 c 0.0157,-6.3234 0,-7.4062 -0.0799,-7.6069 -0.10002,-0.2384 -0.44835,-0.5053 -0.66085,-0.5057 -0.0652,-2e-4 -0.11775,-0.033 -0.11775,-0.072 0,-0.05 1.03428,-0.064 3.48188,-0.046 3.94678,0.029 3.98211,0.034 5.13052,0.6015 0.73949,0.3658 1.52788,1.1326 1.90362,1.8516 0.86541,1.6557 0.64514,3.8237 -0.52799,5.1981 -0.81393,0.9536 -2.01011,1.5506 -3.10692,1.5506 -0.23193,0 -0.42185,0.012 -0.42185,0.027 0,0.014 0.21477,0.2345 0.4773,0.4878 0.2624,0.2532 0.6619,0.7097 0.88754,1.0143 0.35305,0.4764 0.425,0.5419 0.5152,0.468 0.0573,-0.047 0.23049,-0.1951 0.38405,-0.3288 0.34562,-0.3009 1.32371,-0.9571 1.90759,-1.2797 1.36642,-0.7549 3.10688,-1.1964 4.71697,-1.1964 0.21813,0 0.39666,-0.016 0.39666,-0.035 0,-0.057 -4.23687,-11.3449 -4.37956,-11.6679 -0.0787,-0.179 -0.1556,-0.273 -0.1918,-0.2356 -0.0327,0.035 -0.2314,0.5167 -0.44063,1.0718 -0.49572,1.3156 -1.05611,2.7507 -1.08851,2.7882 -0.0144,0.017 -0.0742,-0.019 -0.13356,-0.079 -0.115,-0.115 -0.15369,0 1.56507,-4.5104 0.23647,-0.6201 0.42998,-1.1575 0.42998,-1.1943 0,-0.2466 0.16595,0.1091 0.62042,1.3301 0.28559,0.7675 0.88654,2.3795 1.33538,3.5822 2.09677,5.6193 3.13006,8.3906 3.47433,9.3189 0.92242,2.4868 2.32617,6.1302 2.47514,6.4242 0.19844,0.3916 0.64806,0.7916 0.95434,0.8491 0.56869,0.1068 0.20036,0.1615 -1.08419,0.1615 -0.76084,0 -1.38274,-0.023 -1.38196,-0.051 0,-0.028 0.0989,-0.096 0.2187,-0.1513 0.20735,-0.097 0.217,-0.1178 0.21228,-0.471 0,-0.2883 -0.1102,-0.6454 -0.47966,-1.6148 -0.26105,-0.6846 -0.79974,-2.1077 -1.1971,-3.1624 -0.39723,-1.0547 -0.75272,-1.9555 -0.79005,-2.0017 -0.14447,-0.1791 -1.80119,-0.048 -2.78837,0.2205 -1.50045,0.4082 -2.83482,1.1636 -4.06117,2.2989 -0.22071,0.2043 -0.40125,0.4088 -0.40125,0.4543 0,0.1113 2.69952,3.7216 3.2021,4.2827 1.4003,1.5633 3.4901,2.7188 5.66258,3.1311 0.34235,0.065 0.62243,0.1426 0.62243,0.1724 0,0.092 -0.60964,0.051 -1.25892,-0.086 z" id="path16" sodipodi-0.dtd:nodetypes="csssssssssssssscssssssccsssssssscsssssssssssssssssssssssssssssssssssssssssscc"></path>
    <rect style="fill:#462d17;fill-opacity:1;stroke:none;stroke-width:0.0934504;stroke-opacity:1" id="rect24" width="83.636414" height="111.62788" x="109.67938" y="85.559975" inkscape:export-filename="v final\fundo marrom.png" inkscape:export-xdpi="300" inkscape:export-ydpi="300"></rect>
    <text xml:space="preserve" style="font-weight:bold;font-size:6.80658px;font-family:&#39;TT Chocolates Trl&#39;;-inkscape-font-specification:&#39;TT Chocolates Trl Bold&#39;;text-align:center;writing-mode:lr-tb;direction:ltr;text-anchor:middle;fill:#ffffff;fill-opacity:1;stroke:none;stroke-width:0.267975;stroke-opacity:1" x="150.19116" y="153.46867" id="text32"><tspan sodipodi-0.dtd:role="line" id="tspan32" style="font-style:normal;font-variant:normal;font-weight:normal;font-stretch:normal;font-size:6.80658px;font-family:&#39;Felix Titling&#39;;-inkscape-font-specification:&#39;Felix Titling&#39;;fill:#ffffff;fill-opacity:1;stroke-width:0.267975" x="150.19116" y="153.46867">Rodrigues ALMEIDA</tspan></text>
    <text xml:space="preserve" style="font-weight:bold;font-size:3.9669px;font-family:&#39;TT Chocolates Trl&#39;;-inkscape-font-specification:&#39;TT Chocolates Trl Bold&#39;;text-align:center;letter-spacing:1.3177px;writing-mode:lr-tb;direction:ltr;text-anchor:middle;fill:#ffffff;fill-opacity:1;stroke:none;stroke-width:0.156177;stroke-opacity:1" x="150.3075" y="159.40251" id="text33"><tspan sodipodi-0.dtd:role="line" id="tspan33" style="font-style:normal;font-variant:normal;font-weight:normal;font-stretch:normal;font-size:3.9669px;font-family:&#39;TT Chocolates Trl&#39;;-inkscape-font-specification:&#39;TT Chocolates Trl&#39;;letter-spacing:1.3177px;fill:#ffffff;fill-opacity:1;stroke:none;stroke-width:0.156177" x="150.96634" y="159.40251">ADVOCACIA</tspan></text>
    <path style="fill:url(#linearGradient36);stroke-width:0.254303" d="m 158.02577,142.95877 c -0.8262,-0.1737 -2.0061,-0.5357 -2.7183,-0.8342 -1.1945,-0.5008 -2.5161,-1.388 -3.2009,-2.1488 -0.3004,-0.3339 -1.2786,-1.6258 -2.3347,-3.0838 -0.2879,-0.3975 -0.5498,-0.7389 -0.5821,-0.7588 -0.1793,-0.1113 -2.2089,2.8798 -3.2067,4.7246 -0.3726,0.6892 -0.3831,0.9999 -0.039,1.1716 0.1193,0.06 0.1975,0.1276 0.1739,0.1513 -0.061,0.061 -2.3757,0.054 -2.3753,-0.011 1e-4,-0.028 0.1345,-0.1057 0.2988,-0.1732 0.4004,-0.1647 0.7191,-0.5273 1.3108,-1.492 1.2518,-2.0409 2.2626,-3.4904 3.1055,-4.4537 0.182,-0.208 0.3309,-0.4058 0.3309,-0.4396 0,-0.034 -0.2726,-0.4192 -0.6058,-0.8563 -0.9471,-1.2428 -1.6907,-1.8824 -2.522,-2.1699 l -0.3373,-0.1167 h 1.2784 c 1.3852,0 1.9482,-0.083 2.5456,-0.3585 0.8244,-0.3804 1.5076,-1.162 1.8753,-2.1454 0.1818,-0.4861 0.213,-0.668 0.2396,-1.4023 0.036,-0.991 -0.049,-1.4197 -0.4492,-2.2589 -0.3714,-0.7793 -0.9904,-1.4212 -1.7145,-1.7782 -0.8753,-0.4312 -1.1597,-0.4658 -3.8593,-0.467 h -2.3718 v 7.5043 c 0,6.2252 0.016,7.5423 0.092,7.7264 0.1131,0.2708 0.4077,0.5138 0.6228,0.5138 0.088,0 0.1591,0.031 0.1591,0.068 0,0.043 -0.4723,0.067 -1.2824,0.067 -0.8377,0 -1.2679,-0.023 -1.2408,-0.067 0.023,-0.037 0.1012,-0.068 0.1732,-0.068 0.072,0 0.2448,-0.1034 0.3829,-0.2303 l 0.2513,-0.2303 0.018,-7.3729 c 0.016,-6.3234 0,-7.4062 -0.08,-7.6069 -0.1001,-0.2384 -0.4484,-0.5053 -0.6609,-0.5057 -0.065,-2e-4 -0.1177,-0.033 -0.1177,-0.072 0,-0.05 1.0342,-0.064 3.4818,-0.046 3.9468,0.029 3.9821,0.034 5.1306,0.6015 0.7394,0.3658 1.5277,1.1326 1.9036,1.8516 0.8654,1.6557 0.6451,3.8237 -0.528,5.1981 -0.8139,0.9536 -2.0101,1.5506 -3.1069,1.5506 -0.2321,0 -0.4219,0.012 -0.4219,0.027 0,0.014 0.2148,0.2345 0.4772,0.4878 0.2625,0.2532 0.6619,0.7097 0.8877,1.0143 0.353,0.4764 0.425,0.5419 0.5152,0.468 0.057,-0.047 0.2304,-0.1951 0.384,-0.3288 0.3457,-0.3009 1.3237,-0.9571 1.9076,-1.2797 1.3664,-0.7549 3.1069,-1.1964 4.717,-1.1964 0.2181,0 0.3965,-0.016 0.3965,-0.035 0,-0.057 -4.2367,-11.3449 -4.3794,-11.6679 -0.079,-0.179 -0.1556,-0.273 -0.1918,-0.2356 -0.034,0.035 -0.2314,0.5167 -0.4407,1.0718 -0.4957,1.3156 -1.0561,2.7507 -1.0884,2.7882 -0.015,0.017 -0.074,-0.019 -0.1336,-0.079 -0.115,-0.115 -0.1537,0 1.5651,-4.5104 0.2364,-0.6201 0.4299,-1.1575 0.4299,-1.1943 0,-0.2466 0.166,0.1091 0.6204,1.3301 0.2856,0.7675 0.8866,2.3795 1.3353,3.5822 2.0969,5.6193 3.1302,8.3906 3.4744,9.3189 0.9225,2.4868 2.3262,6.1302 2.4752,6.4242 0.1983,0.3916 0.6481,0.7916 0.9543,0.8491 0.5687,0.1068 0.2004,0.1615 -1.0843,0.1615 -0.7607,0 -1.3826,-0.023 -1.3818,-0.051 0,-0.028 0.099,-0.096 0.2187,-0.1513 0.2073,-0.097 0.217,-0.1178 0.2123,-0.471 0,-0.2883 -0.1102,-0.6454 -0.4798,-1.6148 -0.2611,-0.6846 -0.7996,-2.1077 -1.197,-3.1624 -0.3972,-1.0547 -0.7528,-1.9555 -0.79,-2.0017 -0.1445,-0.1791 -1.8012,-0.048 -2.7884,0.2205 -1.5006,0.4082 -2.8348,1.1636 -4.0611,2.2989 -0.2208,0.2043 -0.4013,0.4088 -0.4013,0.4543 0,0.1113 2.6995,3.7216 3.2021,4.2827 1.4001,1.5633 3.4901,2.7188 5.6625,3.1311 0.3424,0.065 0.6225,0.1426 0.6225,0.1724 0,0.092 -0.6097,0.051 -1.2591,-0.086 z" id="path35" sodipodi-0.dtd:nodetypes="csssssssssssssscssssssccsssssssscsssssssssssssssssssssssssssssssssssssssssscc"></path>
  </g>
</svg>